<svg width="512" height="512" viewBox="100 40 180 180" xmlns="http://www.w3.org/2000/svg">
  <defs>
    <filter id="ico-glow" x="-90%" y="-90%" width="280%" height="280%">
      <feGaussianBlur stdDeviation="6" result="b"/>
      <feMerge><feMergeNode in="b"/><feMergeNode in="SourceGraphic"/></feMerge>
    </filter>
    <filter id="ico-white-glow" x="-60%" y="-60%" width="220%" height="220%">
      <feGaussianBlur stdDeviation="5" result="b"/>
      <feMerge><feMergeNode in="b"/><feMergeNode in="SourceGraphic"/></feMerge>
    </filter>
    <filter id="ico-bloom" x="-150%" y="-150%" width="400%" height="400%">
      <feGaussianBlur stdDeviation="6" result="big"/>
      <feGaussianBlur stdDeviation="2" result="small"/>
      <feMerge><feMergeNode in="big"/><feMergeNode in="small"/><feMergeNode in="SourceGraphic"/></feMerge>
    </filter>
    <radialGradient id="ico-bg" cx="50%" cy="34%" r="82%">
      <stop offset="0%" stop-color="#2C0061"/>
      <stop offset="100%" stop-color="#0B0016"/>
    </radialGradient>
    <linearGradient id="ico-metal" x1="0" y1="40" x2="0" y2="220" gradientUnits="userSpaceOnUse">
      <stop offset="0%"  stop-color="#FFFFFF" stop-opacity="0.16"/>
      <stop offset="16%" stop-color="#C9A9F2" stop-opacity="0.06"/>
      <stop offset="36%" stop-color="#000000" stop-opacity="0.05"/>
      <stop offset="54%" stop-color="#FFFFFF" stop-opacity="0.08"/>
      <stop offset="72%" stop-color="#000000" stop-opacity="0.18"/>
      <stop offset="100%" stop-color="#000000" stop-opacity="0.35"/>
    </linearGradient>
    <linearGradient id="ico-rim" x1="0" y1="40" x2="0" y2="78" gradientUnits="userSpaceOnUse">
      <stop offset="0%" stop-color="#E9D5FF" stop-opacity="0.38"/>
      <stop offset="100%" stop-color="#E9D5FF" stop-opacity="0"/>
    </linearGradient>
    <linearGradient id="ico-chrome" x1="0" y1="69" x2="0" y2="177" gradientUnits="userSpaceOnUse">
      <stop offset="0%"  stop-color="#FFFFFF"/>
      <stop offset="14%" stop-color="#E7D6F7"/>
      <stop offset="30%" stop-color="#B79AD8"/>
      <stop offset="46%" stop-color="#F4EBFF"/>
      <stop offset="52%" stop-color="#FFFFFF"/>
      <stop offset="60%" stop-color="#C8B0E6"/>
      <stop offset="78%" stop-color="#9B7CC9"/>
      <stop offset="92%" stop-color="#E3D2F5"/>
      <stop offset="100%" stop-color="#FBF4FF"/>
    </linearGradient>
    <linearGradient id="ico-spec" x1="0" y1="69" x2="0" y2="135" gradientUnits="userSpaceOnUse">
      <stop offset="0%" stop-color="#FFFFFF" stop-opacity="0.6"/>
      <stop offset="22%" stop-color="#FFFFFF" stop-opacity="0.18"/>
      <stop offset="100%" stop-color="#FFFFFF" stop-opacity="0"/>
    </linearGradient>
    <mask id="ico-edgecut">
      <rect x="100" y="40" width="180" height="180" fill="#fff"/>
      <text x="190" y="130" text-anchor="middle" font-family="Arial, Helvetica, sans-serif" font-size="17" font-weight="700" fill="#000">EDGE</text>
    </mask>
    <mask id="ico-hshape">
      <g fill="#fff">
        <rect x="152" y="69" width="20" height="108"/>
        <rect x="208" y="69" width="20" height="108"/>
        <path d="M152 111 L228 111 L240 123 L228 135 L152 135 L140 123 Z"/>
        <path d="M134 69 L172 69 L172 83 L152 83 Z"/>
        <path d="M246 69 L208 69 L208 83 L228 83 Z"/>
        <path d="M134 177 L172 177 L172 163 L152 163 Z"/>
        <path d="M246 177 L208 177 L208 163 L228 163 Z"/>
      </g>
    </mask>
    <clipPath id="ico-clip"><rect x="100" y="40" width="180" height="180" rx="44"/></clipPath>
  </defs>

  <!-- Badge background -->
  <rect x="100" y="40" width="180" height="180" rx="44" fill="url(#ico-bg)"/>
  <g clip-path="url(#ico-clip)">
    <rect x="100" y="40" width="180" height="180" fill="url(#ico-metal)"/>
    <rect x="100" y="40" width="180" height="38" fill="url(#ico-rim)"/>
  </g>

  <!-- White outer glow ring -->
  <rect x="97" y="37" width="186" height="186" rx="47" fill="none" stroke="white" stroke-width="1.5" filter="url(#ico-white-glow)" opacity="0.55"/>

  <!-- Purple glow border -->
  <rect x="100" y="40" width="180" height="180" rx="44" fill="none" stroke="#A855F7" stroke-width="2" filter="url(#ico-glow)" opacity="0.9"/>
  <!-- Inner subtle border -->
  <rect x="109" y="49" width="162" height="162" rx="36" fill="none" stroke="#A855F7" stroke-width="0.7" opacity="0.35"/>

  <!-- H logo -->
  <g mask="url(#ico-edgecut)">
    <g fill="url(#ico-chrome)">
      <rect x="152" y="69" width="20" height="108"/>
      <rect x="208" y="69" width="20" height="108"/>
      <path d="M152 111 L228 111 L240 123 L228 135 L152 135 L140 123 Z"/>
      <path d="M134 69 L172 69 L172 83 L152 83 Z"/>
      <path d="M246 69 L208 69 L208 83 L228 83 Z"/>
      <path d="M134 177 L172 177 L172 163 L152 163 Z"/>
      <path d="M246 177 L208 177 L208 163 L228 163 Z"/>
    </g>
    <rect x="120" y="69" width="140" height="70" fill="url(#ico-spec)" mask="url(#ico-hshape)"/>
  </g>

  <!-- PRO text -->
  <text x="195" y="200" text-anchor="middle" font-family="Arial, Helvetica, sans-serif" font-size="12" font-weight="500" letter-spacing="6" fill="#E9C9FF" filter="url(#ico-bloom)">PRO</text>
</svg>
